# File generated by ImageToStl.com - Free Image and 3D model conversion tools

mtllib Elevator.mtl

o obj1
v -1.02282572 0.01792425 1.9405694
v -1.02282572 3.94841099 1.9405694
v -1.02282572 3.94841099 1.84783125
v -1.02282572 0.01792425 1.84783125
v -1.02282572 0.01792425 1.84783125
v -1.02282572 3.94841099 1.84783125
v -0.0051434 3.94841099 1.84783125
v -0.0051434 0.01792425 1.84783125
v -0.0051434 0.01792425 1.84783125
v -0.0051434 3.94841099 1.84783125
v -0.0051434 3.94841099 1.9405694
v -0.0051434 0.01792425 1.9405694
v -0.96597064 3.89155579 1.9405694
v -0.96597064 0.07477933 1.9405694
v -0.96597064 0.07477933 1.9015584
v -0.96597064 3.89155579 1.9015584
v -1.02282572 0.01792425 1.84783125
v -0.0051434 0.01792425 1.84783125
v -0.0051434 0.01792425 1.9405694
v -1.02282572 0.01792425 1.9405694
v -0.0051434 3.94841099 1.84783125
v -1.02282572 3.94841099 1.84783125
v -1.02282572 3.94841099 1.9405694
v -0.0051434 3.94841099 1.9405694
v -0.0051434 0.01792425 1.9405694
v -0.0051434 3.94841099 1.9405694
v -0.0619985 3.89155579 1.9405694
v -0.06199851 0.07477935 1.9405694
v -1.02282572 3.94841099 1.9405694
v -0.96597064 3.89155579 1.9405694
v -1.02282572 0.01792425 1.9405694
v -0.96597064 0.07477933 1.9405694
v -0.06199851 0.07477935 1.9015584
v -0.0619985 3.89155579 1.9015584
v -0.96597064 3.89155579 1.9015584
v -0.96597064 0.07477933 1.9015584
v -0.96597064 0.07477933 1.9405694
v -0.06199851 0.07477935 1.9405694
v -0.06199851 0.07477935 1.9015584
v -0.96597064 0.07477933 1.9015584
v -0.0619985 3.89155579 1.9405694
v -0.96597064 3.89155579 1.9405694
v -0.96597064 3.89155579 1.9015584
v -0.0619985 3.89155579 1.9015584
v -0.06199851 0.07477935 1.9405694
v -0.0619985 3.89155579 1.9405694
v -0.0619985 3.89155579 1.9015584
v -0.06199851 0.07477935 1.9015584
vn -1 0 -0
vn 0 0 -1
vn 1 0 -0
vn 1 0 -0
vn 0 -1 -0
vn 0 1 -0
vn 0 0 1
vn 0 0 1
vn 0 0 1
vn -0 1 -0
vn -1 0 -0
vt 0.91352 0.74104
vt 0.91352 0.92009
vt 0.9093 0.92009
vt 0.9093 0.74104
vt 0.87864 0.74104
vt 0.87864 0.92009
vt 0.83228 0.92009
vt 0.83228 0.74104
vt 0.46016 0.81207
vt 0.68619 0.81207
vt 0.68619 0.8174
vt 0.46016 0.8174
vt 0.97762 0.71032
vt 0.97762 0.48233
vt 0.97995 0.48233
vt 0.97995 0.71032
vt 0.98859 0.78312
vt 0.98859 0.72233
vt 0.99413 0.72233
vt 0.99413 0.78312
vt 0.98611 0.67701
vt 0.98611 0.61622
vt 0.99165 0.61622
vt 0.99165 0.67701
vt 0.77653 0.74104
vt 0.77653 0.92009
vt 0.77394 0.9175
vt 0.77394 0.74363
vt 0.73017 0.92009
vt 0.73276 0.9175
vt 0.73017 0.74104
vt 0.73276 0.74363
vt 0.99302 0.02055
vt 0.99302 0.43713
vt 0.89435 0.43713
vt 0.89435 0.02055
vt 0.92469 0.82901
vt 0.92469 0.78783
vt 0.92647 0.78783
vt 0.92647 0.82901
vt 0.92469 0.87488
vt 0.92469 0.8337
vt 0.92647 0.8337
vt 0.92647 0.87488
vt 0.46016 0.79573
vt 0.67965 0.79573
vt 0.67965 0.79797
vt 0.46016 0.79797
usemtl mat0
f 1/1/1 2/2/1 3/3/1
f 1/1/1 3/3/1 4/4/1
f 5/5/2 6/6/2 7/7/2
f 5/5/2 7/7/2 8/8/2
f 9/9/3 10/10/3 11/11/3
f 9/9/3 11/11/3 12/12/3
f 13/13/4 14/14/4 15/15/4
f 13/13/4 15/15/4 16/16/4
f 17/17/5 18/18/5 19/19/5
f 17/17/5 19/19/5 20/20/5
f 21/21/6 22/22/6 23/23/6
f 21/21/6 23/23/6 24/24/6
f 25/25/7 26/26/7 27/27/7
f 25/25/7 27/27/7 28/28/7
f 26/26/8 29/29/8 30/30/8
f 26/26/8 30/30/8 27/27/8
f 29/29/9 31/31/9 32/32/9
f 29/29/9 32/32/9 30/30/9
f 31/31/9 25/25/9 28/28/9
f 31/31/9 28/28/9 32/32/9
f 33/33/8 34/34/8 35/35/8
f 33/33/8 35/35/8 36/36/8
f 37/37/10 38/38/10 39/39/10
f 37/37/10 39/39/10 40/40/10
f 41/41/5 42/42/5 43/43/5
f 41/41/5 43/43/5 44/44/5
f 45/45/11 46/46/11 47/47/11
f 45/45/11 47/47/11 48/48/11
# Vertices: 48, normals: 11, texture coordinates: 48, faces: 28

o obj2
v 0.00837636 0.01792425 1.9405694
v 0.00837636 3.94841099 1.9405694
v 0.00837636 3.94841099 1.84783125
v 0.00837636 0.01792425 1.84783125
v 0.00837636 0.01792425 1.84783125
v 0.00837636 3.94841099 1.84783125
v 1.02605867 3.94841099 1.84783125
v 1.02605867 0.01792425 1.84783125
v 1.02605867 0.01792425 1.84783125
v 1.02605867 3.94841099 1.84783125
v 1.02605867 3.94841099 1.9405694
v 1.02605867 0.01792425 1.9405694
v 0.96920359 0.07477935 1.9405694
v 0.96920359 3.89155579 1.9405694
v 0.96920359 3.89155579 1.9015584
v 0.96920359 0.07477935 1.9015584
v 0.00837636 0.01792425 1.84783125
v 1.02605867 0.01792425 1.84783125
v 1.02605867 0.01792425 1.9405694
v 0.00837636 0.01792425 1.9405694
v 1.02605867 3.94841099 1.84783125
v 0.00837636 3.94841099 1.84783125
v 0.00837636 3.94841099 1.9405694
v 1.02605867 3.94841099 1.9405694
v 1.02605867 0.01792425 1.9405694
v 1.02605867 3.94841099 1.9405694
v 0.96920359 3.89155579 1.9405694
v 0.96920359 0.07477935 1.9405694
v 0.00837636 3.94841099 1.9405694
v 0.06523146 3.89155579 1.9405694
v 0.00837636 0.01792425 1.9405694
v 0.06523146 0.07477933 1.9405694
v 0.96920359 0.07477935 1.9015584
v 0.96920359 3.89155579 1.9015584
v 0.06523146 3.89155579 1.9015584
v 0.06523146 0.07477933 1.9015584
v 0.06523146 3.89155579 1.9405694
v 0.06523146 0.07477933 1.9405694
v 0.06523146 0.07477933 1.9015584
v 0.06523146 3.89155579 1.9015584
v 0.06523146 0.07477933 1.9405694
v 0.96920359 0.07477935 1.9405694
v 0.96920359 0.07477935 1.9015584
v 0.06523146 0.07477933 1.9015584
v 0.96920359 3.89155579 1.9405694
v 0.06523146 3.89155579 1.9405694
v 0.06523146 3.89155579 1.9015584
v 0.96920359 3.89155579 1.9015584
vn -1 0 -0
vn 0 0 -1
vn 1 0 -0
vn -1 0 -0
vn 0 -1 -0
vn 0 1 -0
vn 0 0 1
vn 0 0 1
vn 0 -0 1
vn 0 -0 1
vn 1 -0 -0
vn -0 1 -0
vt 0.98244 0.72233
vt 0.98244 0.95712
vt 0.9769 0.95712
vt 0.9769 0.72233
vt 0.82759 0.74104
vt 0.82759 0.92009
vt 0.78123 0.92009
vt 0.78123 0.74104
vt 0.97074 0.72233
vt 0.97074 0.95712
vt 0.9652 0.95712
vt 0.9652 0.72233
vt 0.46016 0.8039
vt 0.67965 0.8039
vt 0.67965 0.80614
vt 0.46016 0.80614
vt 0.98611 0.61006
vt 0.98611 0.54927
vt 0.99165 0.54927
vt 0.99165 0.61006
vt 0.98611 0.54312
vt 0.98611 0.48233
vt 0.99165 0.48233
vt 0.99165 0.54312
vt 0.30897 0.73035
vt 0.30897 0.96513
vt 0.30557 0.96174
vt 0.30557 0.73374
vt 0.24817 0.96513
vt 0.25157 0.96174
vt 0.24817 0.73035
vt 0.25157 0.73374
vt 0.8831 0.02055
vt 0.8831 0.43713
vt 0.78444 0.43713
vt 0.78444 0.02055
vt 0.91822 0.91491
vt 0.91822 0.74104
vt 0.92 0.74104
vt 0.92 0.91491
vt 0.51214 0.7898
vt 0.46016 0.7898
vt 0.46016 0.78756
vt 0.51214 0.78756
vt 0.92469 0.92075
vt 0.92469 0.87957
vt 0.92647 0.87957
vt 0.92647 0.92075
usemtl mat0
f 49/49/12 50/50/12 51/51/12
f 49/49/12 51/51/12 52/52/12
f 53/53/13 54/54/13 55/55/13
f 53/53/13 55/55/13 56/56/13
f 57/57/14 58/58/14 59/59/14
f 57/57/14 59/59/14 60/60/14
f 61/61/15 62/62/15 63/63/15
f 61/61/15 63/63/15 64/64/15
f 65/65/16 66/66/16 67/67/16
f 65/65/16 67/67/16 68/68/16
f 69/69/17 70/70/17 71/71/17
f 69/69/17 71/71/17 72/72/17
f 73/73/18 74/74/18 75/75/18
f 73/73/18 75/75/18 76/76/18
f 74/74/19 77/77/19 78/78/19
f 74/74/19 78/78/19 75/75/19
f 77/77/20 79/79/20 80/80/20
f 77/77/20 80/80/20 78/78/20
f 79/79/19 73/73/19 76/76/19
f 79/79/19 76/76/19 80/80/19
f 81/81/21 82/82/21 83/83/21
f 81/81/21 83/83/21 84/84/21
f 85/85/22 86/86/22 87/87/22
f 85/85/22 87/87/22 88/88/22
f 89/89/23 90/90/23 91/91/23
f 89/89/23 91/91/23 92/92/23
f 93/93/16 94/94/16 95/95/16
f 93/93/16 95/95/16 96/96/16
# Vertices: 48, normals: 12, texture coordinates: 48, faces: 28

o obj3
v -2 3.90127397 2
v -2 4 2
v -2 4 -2
v -2 3.90127397 -2
v 0.99999994 3.90127397 -2
v 0.99999994 4 -2
v 2 4 -2
v 2 3.90127397 -2
v 2 3.90127397 -2
v 2 4 -2
v 2 4 2
v 2 3.90127397 2
v -0.99999994 3.90127397 2
v -0.99999994 4 2
v -2 4 2
v -2 3.90127397 2
v 0.99999994 0 -2
v 2 0 -2
v 2 0 2
v 0.99999994 0 2
v -0.99999994 4 -2
v -2 4 -2
v -2 4 2
v -0.99999994 4 2
v 1.96198857 0.07352267 2
v 1.96198857 3.86326265 2
v 1.96198857 3.86326265 1.95971
v 1.96198857 0.07352267 1.95971
v 2 0.03551126 -2
v 2 0.03551126 2
v 0.99999994 0.03551126 -2
v 0.99999994 3.90127397 -2
v 2 3.90127397 -2
v 2 0.03551126 -2
v -2 0.03551126 2
v -2 0.03551126 -2
v -2 0 2
v -2 0 -2
v 0.99999994 0 -2
v 0.99999994 0.03551126 -2
v 2 0.03551126 -2
v 2 0 -2
v 2 0 -2
v 2 0 2
v -0.99999994 0 2
v -0.99999994 0.03551126 2
v -2 0.03551126 2
v -2 0 2
v 2 0 2
v 2 0.03551126 2
v 0.99999994 0.03551126 2
v 0.99999994 0 2
v -2 0 -2
v -2 0.03551126 -2
v -0.99999994 0.03551126 -2
v -0.99999994 0 -2
v -2 0.03551126 -2
v -2 3.90127397 -2
v -0.99999994 3.90127397 -2
v -0.99999994 0.03551126 -2
v 1.96198857 3.86326265 2
v 1.03801131 3.86326265 2
v 1.03801131 3.86326265 1.95971
v 1.96198857 3.86326265 1.95971
v -0.99999994 0.03551126 2
v 0.99999994 0.03551126 2
v 0.99999994 0.03551126 1.79094434
v -0.99999994 0.03551126 1.79094434
v 2 4 -2
v 0.99999994 4 -2
v 0.99999994 4 2
v 2 4 2
v -2 0 -2
v -0.99999994 0 -2
v -0.99999994 0 2
v -2 0 2
v 2 3.90127397 2
v 2 4 2
v 0.99999994 4 2
v 0.99999994 3.90127397 2
v -2 3.90127397 -2
v -2 4 -2
v -0.99999994 4 -2
v -0.99999994 3.90127397 -2
v -0.99999994 3.90127397 1.79094434
v -0.99999994 0.03551126 1.79094434
v -1.89143634 0.03551126 1.75950658
v -1.89143634 3.90127397 1.75950658
v 0.99999994 0.03551126 2
v 0.99999994 3.90127397 2
v 0.99999994 3.90127397 1.79094434
v 0.99999994 0.03551126 1.79094434
v 0.99999994 3.90127397 2
v -0.99999994 3.90127397 2
v -0.99999994 3.90127397 1.79094434
v 0.99999994 3.90127397 1.79094434
v -0.99999994 3.90127397 2
v -0.99999994 0.03551126 2
v -0.99999994 0.03551126 1.79094434
v -0.99999994 3.90127397 1.79094434
v 1.89143634 0.03551126 1.75950658
v 1.89143634 3.90127397 1.75950658
v 1.89143634 3.90127397 -1.90618205
v 1.89143634 0.03551126 -1.90618205
v 1.89143634 0.03551126 1.75950658
v -1.89143634 0.03551126 1.75950658
v 0.99999994 0.03551126 1.79094434
v 0.99999994 3.90127397 1.79094434
v 1.89143634 3.90127397 1.75950658
v 1.89143634 0.03551126 1.75950658
v -1.89143634 3.90127397 1.75950658
v 1.89143634 3.90127397 1.75950658
v 1.89143634 0.03551126 -1.90618205
v 1.89143634 3.90127397 -1.90618205
v -1.89143634 3.90127397 -1.90618205
v -1.89143634 0.03551126 -1.90618205
v 1.89143634 3.90127397 1.75950658
v -1.89143634 3.90127397 1.75950658
v -1.89143634 3.90127397 -1.90618205
v 1.89143634 3.90127397 -1.90618205
v -1.89143634 3.90127397 1.75950658
v -1.89143634 0.03551126 1.75950658
v -1.89143634 0.03551126 -1.90618205
v -1.89143634 3.90127397 -1.90618205
v 1.89143634 0.03551126 -1.90618205
v -1.89143634 0.03551126 -1.90618205
v -1.03801131 3.86326265 2
v -1.03801131 0.07352267 2
v -1.96198857 3.86326265 2
v -1.96198857 0.07352267 2
v 1.96198857 3.86326265 2
v 1.96198857 0.07352267 2
v 1.03801131 3.86326265 2
v 1.03801131 0.07352267 2
v -1.03801131 0.07352267 1.95971
v -1.03801131 3.86326265 1.95971
v -1.96198857 3.86326265 1.95971
v -1.96198857 0.07352267 1.95971
v 1.96198857 0.07352267 1.95971
v 1.96198857 3.86326265 1.95971
v 1.03801131 3.86326265 1.95971
v 1.03801131 0.07352267 1.95971
v -1.03801131 3.86326265 2
v -1.96198857 3.86326265 2
v -1.96198857 3.86326265 1.95971
v -1.03801131 3.86326265 1.95971
v 1.03801131 3.86326265 2
v 1.03801131 0.07352267 2
v 1.03801131 0.07352267 1.95971
v 1.03801131 3.86326265 1.95971
v -1.03801131 0.07352267 2
v -1.03801131 3.86326265 2
v -1.03801131 3.86326265 1.95971
v -1.03801131 0.07352267 1.95971
v 1.03801131 0.07352267 2
v 1.96198857 0.07352267 2
v 1.96198857 0.07352267 1.95971
v 1.03801131 0.07352267 1.95971
v -1.96198857 3.86326265 2
v -1.96198857 0.07352267 2
v -1.96198857 0.07352267 1.95971
v -1.96198857 3.86326265 1.95971
v -1.96198857 0.07352267 2
v -1.03801131 0.07352267 2
v -1.03801131 0.07352267 1.95971
v -1.96198857 0.07352267 1.95971
v -1.85000002 1.30330491 -1.82469952
v -1.85000002 1.45807767 -1.82469952
v -1.85000002 1.45807767 -1.87792349
v -1.85000002 1.30330491 -1.87792349
v 1.79999995 1.30330491 -1.87792349
v 1.79999995 1.45807767 -1.87792349
v 1.85000002 1.45807767 -1.87792349
v 1.85000002 1.30330491 -1.87792349
v 1.85000002 1.30330491 -1.87792349
v 1.85000002 1.45807767 -1.87792349
v 1.85000002 1.45807767 -1.82469952
v 1.85000002 1.30330491 -1.82469952
v 1.85000002 1.45807767 1.72142744
v 1.85000002 1.30330491 1.72142744
v 1.79999995 1.30330491 -1.87792349
v 1.85000002 1.30330491 -1.87792349
v 1.85000002 1.30330491 -1.82469952
v 1.79999995 1.30330491 -1.82469952
v -1.79999983 1.45807767 -1.87792349
v -1.85000002 1.45807767 -1.87792349
v -1.85000002 1.45807767 -1.82469952
v -1.79999995 1.45807767 -1.82469952
v 1.85000002 1.45807767 -1.87792349
v 1.79999995 1.45807767 -1.87792349
v 1.79999995 1.45807767 -1.82469952
v 1.85000002 1.45807767 -1.82469952
v -1.79999995 1.30330491 -1.87792349
v -1.79999983 1.30330491 -1.82469952
v -1.85000002 1.45807767 1.72142744
v -1.79999995 1.45807767 1.72142744
v -1.79999995 1.30330491 -1.87792349
v -1.79999983 1.45807767 -1.87792349
v -1.85000002 1.30330491 -1.87792349
v -1.85000002 1.45807767 -1.87792349
v -1.85000002 1.30330491 -1.87792349
v -1.85000002 1.30330491 -1.82469952
v 1.79999995 1.30330491 -1.82469952
v 1.79999995 1.45807767 -1.82469952
v -1.79999995 1.45807767 -1.82469952
v -1.79999983 1.30330491 -1.82469952
v -1.79999983 1.30330491 1.72142744
v -1.79999995 1.45807767 1.72142744
v -1.85000002 1.45807767 1.72142744
v -1.85000002 1.30330491 1.72142744
v 1.85000002 1.30330491 1.72142744
v 1.85000002 1.45807767 1.72142744
v 1.79999995 1.45807767 1.72142744
v 1.79999995 1.30330491 1.72142744
v 1.79999995 1.45807767 -1.82469952
v 1.79999995 1.30330491 -1.82469952
v 1.79999995 1.30330491 1.72142744
v 1.79999995 1.45807767 1.72142744
v -1.79999983 1.30330491 -1.82469952
v -1.79999995 1.45807767 -1.82469952
v -1.79999995 1.45807767 1.72142744
v -1.79999983 1.30330491 1.72142744
v -1.79999983 1.30330491 1.72142744
v -1.85000002 1.30330491 1.72142744
v -1.85000002 1.30330491 1.72142744
v -1.85000002 1.45807767 1.72142744
v 1.85000002 1.30330491 1.72142744
v 1.79999995 1.30330491 1.72142744
v 1.79999995 1.45807767 1.72142744
v 1.85000002 1.45807767 1.72142744
v 1.24811077 2.6122551 2.01555061
v 1.24811077 3.29847145 2.01555061
v 1.24811077 3.29847145 1.90403485
v 1.24811077 2.6122551 1.90403485
v 1.78093362 2.6122551 1.90403485
v 1.78093362 3.29847145 1.90403485
v 1.78093362 3.29847145 2.01555061
v 1.78093362 2.6122551 2.01555061
v 1.78093362 2.6122551 2.01555061
v 1.78093362 3.29847145 2.01555061
v 1.24811077 3.29847145 2.01555061
v 1.24811077 2.6122551 2.01555061
v 1.24811077 2.6122551 1.90403485
v 1.78093362 2.6122551 1.90403485
v 1.78093362 2.6122551 2.01555061
v 1.24811077 2.6122551 2.01555061
v 1.78093362 3.29847145 1.90403485
v 1.24811077 3.29847145 1.90403485
v 1.24811077 3.29847145 2.01555061
v 1.78093362 3.29847145 2.01555061
vn -1 0 -0
vn 0 0 -1
vn 1 0 -0
vn 0 0 1
vn 0 -1 -0
vn 0 1 -0
vn 0 -1 -0
vn 0 1 -0
vn 0.03524 0 -0.99938
vn -1 0 -0
vn 1 0 -0
vn -0.03524 0 -0.99938
vn 0 0 1
vn 0 -0 1
vn 0 0 -1
vn 0 -0 1
vn 0 -0 1
vn 1 0 -0
vn 0 0 1
vt 0.24202 0.23612
vt 0.24202 0.24202
vt 0.00308 0.24202
vt 0.00308 0.23612
vt 0.30791 0.48122
vt 0.30791 0.48711
vt 0.24817 0.48711
vt 0.24817 0.48122
vt 0.48711 0.23612
vt 0.48711 0.24202
vt 0.24817 0.24202
vt 0.24817 0.23612
vt 0.06281 0.48122
vt 0.06281 0.48711
vt 0.00308 0.48711
vt 0.00308 0.48122
vt 0.49413 0.26986
vt 0.53829 0.26986
vt 0.53829 0.44649
vt 0.49413 0.44649
vt 0.41048 0.73446
vt 0.44109 0.73446
vt 0.44109 0.85687
vt 0.41048 0.85687
vt 0.45062 0.85321
vt 0.69847 0.85321
vt 0.69847 0.85584
vt 0.45062 0.85584
vt 0.48711 0.0052
vt 0.24817 0.0052
vt 0.06463 0.49832
vt 0.06463 0.71685
vt 0.0081 0.71685
vt 0.0081 0.49832
vt 0.24202 0.0052
vt 0.00308 0.0052
vt 0.24202 0.00308
vt 0.00308 0.00308
vt 0.30791 0.24817
vt 0.30791 0.2503
vt 0.24817 0.2503
vt 0.24817 0.24817
vt 0.48711 0.00308
vt 0.24817 0.00308
vt 0.06281 0.24817
vt 0.06281 0.2503
vt 0.00308 0.2503
vt 0.00308 0.24817
vt 0.24202 0.24817
vt 0.24202 0.2503
vt 0.18228 0.2503
vt 0.18228 0.24817
vt 0.48711 0.24817
vt 0.48711 0.2503
vt 0.42738 0.2503
vt 0.42738 0.24817
vt 0.23422 0.49832
vt 0.23422 0.71685
vt 0.17769 0.71685
vt 0.17769 0.49832
vt 0.92469 0.78313
vt 0.92469 0.74104
vt 0.92653 0.74104
vt 0.92653 0.78313
vt 0.66599 0.721
vt 0.54652 0.721
vt 0.54652 0.70851
vt 0.66599 0.70851
vt 0.31867 0.73446
vt 0.34928 0.73446
vt 0.34928 0.85687
vt 0.31867 0.85687
vt 0.36165 0.26986
vt 0.40581 0.26986
vt 0.40581 0.44649
vt 0.36165 0.44649
vt 0.24202 0.48122
vt 0.24202 0.48711
vt 0.18228 0.48711
vt 0.18228 0.48122
vt 0.48711 0.48122
vt 0.48711 0.48711
vt 0.42738 0.48711
vt 0.42738 0.48122
vt 0.25318 0.46984
vt 0.25318 0.26429
vt 0.30058 0.26429
vt 0.30058 0.46984
vt 0.89286 0.74104
vt 0.89286 0.91714
vt 0.88334 0.91714
vt 0.88334 0.74104
vt 0.18388 0.74194
vt 0.06441 0.74194
vt 0.06441 0.72945
vt 0.18388 0.72945
vt 0.94656 0.95325
vt 0.94656 0.72233
vt 0.95905 0.72233
vt 0.95905 0.95325
vt 0.23128 0.75664
vt 0.23128 0.98756
vt 0.01231 0.98756
vt 0.01231 0.75664
vt 0.49327 0.70664
vt 0.71924 0.70664
vt 0.35346 0.26429
vt 0.35346 0.46984
vt 0.30606 0.46984
vt 0.30606 0.26429
vt 0.01116 0.72758
vt 0.23713 0.72758
vt 0.47414 0.49327
vt 0.47414 0.72419
vt 0.24817 0.72419
vt 0.24817 0.49327
vt 0.4526 0.9956
vt 0.31655 0.9956
vt 0.31655 0.86376
vt 0.4526 0.86376
vt 0.7254 0.71617
vt 0.7254 0.48525
vt 0.94437 0.48525
vt 0.94437 0.71617
vt 0.49327 0.48767
vt 0.71924 0.48767
vt 0.06054 0.47895
vt 0.06054 0.25257
vt 0.00535 0.47895
vt 0.00535 0.25257
vt 0.23975 0.47895
vt 0.23975 0.25257
vt 0.18455 0.47895
vt 0.18455 0.25257
vt 0.65585 0.0115
vt 0.65585 0.46022
vt 0.54644 0.46022
vt 0.54644 0.0115
vt 0.77745 0.0115
vt 0.77745 0.46022
vt 0.66805 0.46022
vt 0.66805 0.0115
vt 0.98859 0.84447
vt 0.98859 0.78928
vt 0.991 0.78928
vt 0.991 0.84447
vt 0.69929 0.84889
vt 0.45143 0.84889
vt 0.45143 0.84626
vt 0.69929 0.84626
vt 0.96833 0.48912
vt 0.96833 0.7155
vt 0.96592 0.7155
vt 0.96592 0.48912
vt 0.98859 0.90582
vt 0.98859 0.85063
vt 0.991 0.85063
vt 0.991 0.90582
vt 0.4803 0.71965
vt 0.4803 0.49327
vt 0.48271 0.49327
vt 0.48271 0.71965
vt 0.98859 0.96717
vt 0.98859 0.91198
vt 0.991 0.91198
vt 0.991 0.96717
vt 0.45278 0.74014
vt 0.45278 0.75026
vt 0.4493 0.75026
vt 0.4493 0.74014
vt 0.45257 0.77386
vt 0.45257 0.78398
vt 0.4493 0.78398
vt 0.4493 0.77386
vt 0.66715 0.82333
vt 0.66715 0.83223
vt 0.66409 0.83223
vt 0.66409 0.82333
vt 0.46016 0.83223
vt 0.46016 0.82333
vt 0.9404 0.94036
vt 0.9404 0.94335
vt 0.93722 0.94335
vt 0.93722 0.94036
vt 0.70828 0.94519
vt 0.70828 0.94818
vt 0.7051 0.94818
vt 0.7051 0.94519
vt 0.70828 0.72716
vt 0.70828 0.73014
vt 0.7051 0.73014
vt 0.7051 0.72716
vt 0.9404 0.72532
vt 0.93722 0.72532
vt 0.49327 0.94818
vt 0.49327 0.94519
vt 0.68801 0.77386
vt 0.68801 0.78398
vt 0.69128 0.77386
vt 0.69128 0.78398
vt 0.9404 0.72233
vt 0.93722 0.72233
vt 0.68474 0.757
vt 0.68474 0.76712
vt 0.4493 0.76712
vt 0.4493 0.757
vt 0.95351 0.68732
vt 0.95351 0.69657
vt 0.95052 0.69657
vt 0.95052 0.68732
vt 0.95351 0.70272
vt 0.95351 0.71197
vt 0.95052 0.71197
vt 0.95052 0.70272
vt 0.89755 0.74104
vt 0.90461 0.74104
vt 0.90461 0.90258
vt 0.89755 0.90258
vt 0.95977 0.68116
vt 0.95052 0.68116
vt 0.95052 0.46934
vt 0.95977 0.46934
vt 0.7254 0.72532
vt 0.7254 0.72233
vt 0.6847 0.74014
vt 0.6847 0.75026
vt 0.7254 0.94335
vt 0.7254 0.94036
vt 0.49327 0.73014
vt 0.49327 0.72716
vt 0.77004 0.9495
vt 0.77004 0.9905
vt 0.76338 0.9905
vt 0.76338 0.9495
vt 0.78286 0.9495
vt 0.78286 0.9905
vt 0.7762 0.9905
vt 0.7762 0.9495
vt 0.75558 0.313
vt 0.75558 0.39301
vt 0.69345 0.39301
vt 0.69345 0.313
vt 0.80849 0.9495
vt 0.80849 0.98133
vt 0.80183 0.98133
vt 0.80183 0.9495
vt 0.79568 0.9495
vt 0.79568 0.98133
vt 0.78901 0.98133
vt 0.78901 0.9495
usemtl mat0
f 97/97/24 98/98/24 99/99/24
f 97/97/24 99/99/24 100/100/24
f 101/101/25 102/102/25 103/103/25
f 101/101/25 103/103/25 104/104/25
f 105/105/26 106/106/26 107/107/26
f 105/105/26 107/107/26 108/108/26
f 109/109/27 110/110/27 111/111/27
f 109/109/27 111/111/27 112/112/27
f 113/113/28 114/114/28 115/115/28
f 113/113/28 115/115/28 116/116/28
f 117/117/29 118/118/29 119/119/29
f 117/117/29 119/119/29 120/120/29
f 121/121/24 122/122/24 123/123/24
f 121/121/24 123/123/24 124/124/24
f 125/125/26 105/105/26 108/108/26
f 125/125/26 108/108/26 126/126/26
f 127/127/25 128/128/25 129/129/25
f 127/127/25 129/129/25 130/130/25
f 131/131/24 97/97/24 100/100/24
f 131/131/24 100/100/24 132/132/24
f 133/133/24 131/131/24 132/132/24
f 133/133/24 132/132/24 134/134/24
f 135/135/25 136/136/25 137/137/25
f 135/135/25 137/137/25 138/138/25
f 139/139/26 125/125/26 126/126/26
f 139/139/26 126/126/26 140/140/26
f 141/141/27 142/142/27 143/143/27
f 141/141/27 143/143/27 144/144/27
f 145/145/27 146/146/27 147/147/27
f 145/145/27 147/147/27 148/148/27
f 148/148/27 147/147/27 142/142/27
f 148/148/27 142/142/27 141/141/27
f 149/149/25 150/150/25 151/151/25
f 149/149/25 151/151/25 152/152/25
f 152/152/25 151/151/25 136/136/25
f 152/152/25 136/136/25 135/135/25
f 153/153/25 154/154/25 155/155/25
f 153/153/25 155/155/25 156/156/25
f 156/156/25 155/155/25 128/128/25
f 156/156/25 128/128/25 127/127/25
f 157/157/30 158/158/30 159/159/30
f 157/157/30 159/159/30 160/160/30
f 161/161/31 162/162/31 163/163/31
f 161/161/31 163/163/31 164/164/31
f 165/165/29 166/166/29 167/167/29
f 165/165/29 167/167/29 168/168/29
f 166/166/29 117/117/29 120/120/29
f 166/166/29 120/120/29 167/167/29
f 169/169/28 170/170/28 171/171/28
f 169/169/28 171/171/28 172/172/28
f 170/170/28 113/113/28 116/116/28
f 170/170/28 116/116/28 171/171/28
f 173/173/27 174/174/27 175/175/27
f 173/173/27 175/175/27 176/176/27
f 176/176/27 175/175/27 110/110/27
f 176/176/27 110/110/27 109/109/27
f 177/177/25 178/178/25 179/179/25
f 177/177/25 179/179/25 180/180/25
f 180/180/25 179/179/25 102/102/25
f 180/180/25 102/102/25 101/101/25
f 181/181/32 182/182/32 183/183/32
f 181/181/32 183/183/32 184/184/32
f 185/185/33 186/186/33 187/187/33
f 185/185/33 187/187/33 188/188/33
f 189/189/30 190/190/30 191/191/30
f 189/189/30 191/191/30 192/192/30
f 193/193/34 194/194/34 195/195/34
f 193/193/34 195/195/34 196/196/34
f 197/197/33 198/198/33 199/199/33
f 197/197/33 199/199/33 200/200/33
f 164/164/29 163/163/29 201/201/29
f 164/164/29 201/201/29 202/202/29
f 203/203/35 204/204/35 205/205/35
f 203/203/35 205/205/35 206/206/35
f 192/192/28 191/191/28 207/207/28
f 192/192/28 207/207/28 208/208/28
f 209/209/27 210/210/27 211/211/27
f 209/209/27 211/211/27 212/212/27
f 213/213/28 214/214/28 215/215/28
f 213/213/28 215/215/28 216/216/28
f 217/217/34 218/218/34 219/219/34
f 217/217/34 219/219/34 220/220/34
f 202/202/29 201/201/29 221/221/29
f 202/202/29 221/221/29 222/222/29
f 142/142/27 109/109/27 223/223/27
f 142/142/27 223/223/27 224/224/27
f 109/109/36 112/112/36 225/225/36
f 109/109/36 225/225/36 223/223/36
f 112/112/27 143/143/27 226/226/27
f 112/112/27 226/226/27 225/225/27
f 143/143/37 142/142/37 224/224/37
f 143/143/37 224/224/37 226/226/37
f 146/146/27 173/173/27 227/227/27
f 146/146/27 227/227/27 228/228/27
f 173/173/36 176/176/36 229/229/36
f 173/173/36 229/229/36 227/227/36
f 176/176/27 147/147/27 230/230/27
f 176/176/27 230/230/27 229/229/27
f 147/147/37 146/146/37 228/228/37
f 147/147/37 228/228/37 230/230/37
f 231/231/27 232/232/27 233/233/27
f 231/231/27 233/233/27 234/234/27
f 235/235/27 236/236/27 237/237/27
f 235/235/27 237/237/27 238/238/27
f 239/239/30 240/240/30 241/241/30
f 239/239/30 241/241/30 242/242/30
f 243/243/26 244/244/26 245/245/26
f 243/243/26 245/245/26 246/246/26
f 247/247/24 248/248/24 249/249/24
f 247/247/24 249/249/24 250/250/24
f 251/251/31 252/252/31 253/253/31
f 251/251/31 253/253/31 254/254/31
f 255/255/26 256/256/26 257/257/26
f 255/255/26 257/257/26 258/258/26
f 259/259/31 260/260/31 261/261/31
f 259/259/31 261/261/31 262/262/31
f 263/263/24 264/264/24 265/265/24
f 263/263/24 265/265/24 266/266/24
f 267/267/25 268/268/25 269/269/25
f 267/267/25 269/269/25 270/270/25
f 271/271/26 272/272/26 273/273/26
f 271/271/26 273/273/26 274/274/26
f 274/274/26 273/273/26 275/275/26
f 274/274/26 275/275/26 276/276/26
f 277/277/28 278/278/28 279/279/28
f 277/277/28 279/279/28 280/280/28
f 281/281/29 282/282/29 283/283/29
f 281/281/29 283/283/29 284/284/29
f 285/285/29 286/286/29 287/287/29
f 285/285/29 287/287/29 288/288/29
f 289/289/30 277/277/30 280/280/30
f 289/289/30 280/280/30 290/290/30
f 284/284/29 283/283/29 291/291/29
f 284/284/29 291/291/29 292/292/29
f 293/293/25 294/294/25 268/268/25
f 293/293/25 268/268/25 267/267/25
f 295/295/38 296/296/38 294/294/38
f 295/295/38 294/294/38 293/293/38
f 297/297/28 289/289/28 290/290/28
f 297/297/28 290/290/28 298/298/28
f 286/286/31 281/281/31 284/284/31
f 286/286/31 284/284/31 287/287/31
f 299/299/39 300/300/39 301/301/39
f 299/299/39 301/301/39 302/302/39
f 303/303/40 304/304/40 305/305/40
f 303/303/40 305/305/40 306/306/40
f 307/307/27 308/308/27 309/309/27
f 307/307/27 309/309/27 310/310/27
f 311/311/24 312/312/24 313/313/24
f 311/311/24 313/313/24 314/314/24
f 315/315/41 316/316/41 317/317/41
f 315/315/41 317/317/41 318/318/41
f 298/298/28 290/290/28 319/319/28
f 298/298/28 319/319/28 320/320/28
f 264/264/24 263/263/24 321/321/24
f 264/264/24 321/321/24 322/322/24
f 280/280/28 279/279/28 323/323/28
f 280/280/28 323/323/28 324/324/28
f 288/288/29 287/287/29 325/325/29
f 288/288/29 325/325/29 326/326/29
f 327/327/24 328/328/24 329/329/24
f 327/327/24 329/329/24 330/330/24
f 331/331/26 332/332/26 333/333/26
f 331/331/26 333/333/26 334/334/26
f 335/335/42 336/336/42 337/337/42
f 335/335/42 337/337/42 338/338/42
f 339/339/28 340/340/28 341/341/28
f 339/339/28 341/341/28 342/342/28
f 343/343/29 344/344/29 345/345/29
f 343/343/29 345/345/29 346/346/29
# Vertices: 250, normals: 19, texture coordinates: 250, faces: 170

o obj4
v 1E-08 3.75578403 -0
v 0.11930829 3.78114557 0.08668152
v -0.04557079 3.78114533 0.14025487
v 0.2029808 3.84965539 0.14747244
v 0.23861727 3.83632207 -0
v -0.14747371 3.78114605 -0
v -0.04557079 3.78114533 -0.1402549
v 0.11930829 3.78114557 -0.08668154
v 0.26678351 3.92560077 0.08668186
v -0.07753026 3.84965539 0.23861764
v 0.07373796 3.83632159 0.22693777
v 1E-08 3.92560077 0.28051239
v -0.25089768 3.84965587 -0
v -0.19304566 3.83632207 0.14025533
v -0.26678351 3.92560077 0.08668186
v -0.07753026 3.84965539 -0.2386177
v -0.19304566 3.83632207 -0.14025536
v -0.16488115 3.92560077 -0.22693923
v 0.2029808 3.84965539 -0.1474725
v 0.07373796 3.83632159 -0.22693783
v 0.16488115 3.92560077 -0.22693923
v 0.16488115 3.92560077 0.22693923
v -0.16488115 3.92560077 0.22693923
v -0.26678351 3.92560077 -0.08668189
v 1E-08 3.92560077 -0.28051245
v 0.26678351 3.92560077 -0.08668189
vn -0 -1 0
vn 0.30207 -0.92768 0.21946
vn -0.11538 -0.92768 0.3551
vn 0.65477 -0.58735 0.47571
vn 0.74808 -0.66361 0
vn -0.37338 -0.92768 -0
vn -0.11538 -0.92768 -0.3551
vn 0.30207 -0.92768 -0.21946
vn 0.88458 -0.38188 0.26774
vn -0.2501 -0.58735 0.76972
vn 0.23117 -0.66361 0.71146
vn 0.01872 -0.38189 0.92402
vn -0.80934 -0.58735 0
vn -0.60521 -0.66361 0.43971
vn -0.87301 -0.38188 0.30334
vn -0.2501 -0.58735 -0.76972
vn -0.60521 -0.66361 -0.43971
vn -0.55827 -0.38189 -0.73655
vn 0.65477 -0.58735 -0.47571
vn 0.23117 -0.66361 -0.71146
vn 0.52799 -0.38189 -0.75855
vn 0.52798 -0.38189 0.75855
vn -0.55827 -0.38189 0.73655
vn -0.87301 -0.38188 -0.30334
vn 0.01872 -0.38189 -0.92402
vn 0.88458 -0.38188 -0.26774
vt 0.12208 0.36513
vt 0.12693 0.38007
vt 0.10937 0.37437
vt 0.13128 0.39345
vt 0.14451 0.38144
vt 0.10937 0.3559
vt 0.12693 0.3502
vt 0.13778 0.36513
vt 0.14626 0.39862
vt 0.09798 0.38264
vt 0.11351 0.39151
vt 0.0977 0.39848
vt 0.09798 0.34763
vt 0.09434 0.36513
vt 0.08283 0.35226
vt 0.13128 0.33681
vt 0.11351 0.33876
vt 0.12219 0.32383
vt 0.15185 0.36513
vt 0.14451 0.34883
vt 0.16139 0.35248
vt 0.12219 0.40644
vt 0.08283 0.37801
vt 0.0977 0.33179
vt 0.14626 0.33165
vt 0.16139 0.37779
usemtl mat1
f 347/347/43 348/348/44 349/349/45
f 350/350/46 348/348/44 351/351/47
f 347/347/43 349/349/45 352/352/48
f 347/347/43 352/352/48 353/353/49
f 347/347/43 353/353/49 354/354/50
f 350/350/46 351/351/47 355/355/51
f 356/356/52 357/357/53 358/358/54
f 359/359/55 360/360/56 361/361/57
f 362/362/58 363/363/59 364/364/60
f 365/365/61 366/366/62 367/367/63
f 350/350/46 355/355/51 368/368/64
f 356/356/52 358/358/54 369/369/65
f 359/359/55 361/361/57 370/370/66
f 362/362/58 364/364/60 371/371/67
f 365/365/61 367/367/63 372/372/68
f 367/367/63 366/366/62 371/371/67
f 366/366/62 362/362/58 371/371/67
f 364/364/60 363/363/59 370/370/66
f 363/363/59 359/359/55 370/370/66
f 361/361/57 360/360/56 369/369/65
f 360/360/56 356/356/52 369/369/65
f 358/358/54 357/357/53 368/368/64
f 357/357/53 350/350/46 368/368/64
f 355/355/51 351/351/47 372/372/68
f 351/351/47 365/365/61 372/372/68
f 354/354/50 366/366/62 365/365/61
f 354/354/50 353/353/49 366/366/62
f 353/353/49 362/362/58 366/366/62
f 353/353/49 363/363/59 362/362/58
f 353/353/49 352/352/48 363/363/59
f 352/352/48 359/359/55 363/363/59
f 352/352/48 360/360/56 359/359/55
f 352/352/48 349/349/45 360/360/56
f 349/349/45 356/356/52 360/360/56
f 351/351/47 354/354/50 365/365/61
f 351/351/47 348/348/44 354/354/50
f 348/348/44 347/347/43 354/354/50
f 349/349/45 357/357/53 356/356/52
f 349/349/45 348/348/44 357/357/53
f 348/348/44 350/350/46 357/357/53
# Vertices: 26, normals: 26, texture coordinates: 26, faces: 40

