ply
format ascii 1.0
comment Created by Blender 2.80 (sub 75) - www.blender.org, source file: 'Laundromat.blend'
element vertex 16
property float x
property float y
property float z
property float nx
property float ny
property float nz
property float s
property float t
element face 8
property list uchar uint vertex_indices
end_header
7.493016 -10.996899 0.501977 0.000000 0.000000 1.000000 -0.398170 0.128333
-12.722755 -10.996905 0.501977 0.000000 0.000000 1.000000 0.897575 0.128333
-12.722755 -14.394623 0.501977 0.000000 0.000000 1.000000 0.897575 0.999929
7.493018 -14.394616 0.501977 0.000000 -0.000000 1.000000 -0.398170 0.999929
-12.722755 -10.996905 0.501977 -0.000000 1.000000 0.000000 0.897575 0.128333
7.493016 -10.996899 0.501977 -0.000000 1.000000 0.000000 -0.398170 0.128333
7.493016 -10.996899 0.001977 -0.000000 1.000000 0.000000 -0.398170 0.000071
-12.722755 -10.996905 0.001977 -0.000000 1.000000 0.000000 0.897575 0.000071
7.493016 -10.996899 0.001977 1.000000 0.000001 0.000000 0.999956 0.000044
7.493016 -10.996899 0.501977 1.000000 0.000001 0.000000 0.999956 0.196505
7.493018 -14.389992 0.501977 1.000000 0.000001 0.000000 0.000044 0.196504
7.493018 -14.389992 0.001977 1.000000 0.000001 -0.000000 0.000044 0.000044
-12.722755 -10.996905 0.501977 -1.000000 0.000000 0.000000 0.000034 0.000033
-12.722755 -10.996905 0.001977 -1.000000 0.000000 0.000000 0.110866 0.000033
-12.722755 -14.380173 0.001977 -1.000000 0.000000 0.000000 0.110866 0.999967
-12.722755 -14.380173 0.501977 -1.000000 0.000000 0.000000 0.000033 0.999967
3 0 1 2
3 0 2 3
3 4 5 6
3 4 6 7
3 8 9 10
3 8 10 11
3 12 13 14
3 12 14 15
